HIERARCHY
ROOT Hips
{
	OFFSET	0.00	0.00	0.00
	CHANNELS 6 Xposition Yposition Zposition Zrotation Xrotation Yrotation
	JOINT LeftHip
	{
		OFFSET	 3.430000	 0.000000	 0.000000
		CHANNELS 3 Zrotation Xrotation Yrotation
		JOINT LeftKnee
		{
			OFFSET	 0.000000	-18.469999	 0.000000
			CHANNELS 3 Zrotation Xrotation Yrotation
			JOINT LeftAnkle
			{
				OFFSET	 0.000000	-17.950001	 0.000000
				CHANNELS 3 Zrotation Xrotation Yrotation
				End Site 
				{
					OFFSET	 0.000000	-3.119996	 0.000000
				}
			}
		}
	}
	JOINT RightHip
	{
		OFFSET	-3.430000	 0.000000	 0.000000
		CHANNELS 3 Zrotation Xrotation Yrotation
		JOINT RightKnee
		{
			OFFSET	 0.000000	-18.809999	 0.000000
			CHANNELS 3 Zrotation Xrotation Yrotation
			JOINT RightAnkle
			{
				OFFSET	 0.000000	-17.570000	 0.000000
				CHANNELS 3 Zrotation Xrotation Yrotation
				End Site 
				{
					OFFSET	 0.000000	-3.250000	 0.000000
				}
			}
		}
	}
	JOINT Chest
	{
		OFFSET	 0.000000	 4.570000	 0.000000
		CHANNELS 3 Zrotation Xrotation Yrotation
		JOINT LeftCollar
		{
			OFFSET	 1.060000	 15.330000	 1.760000
			CHANNELS 3 Zrotation Xrotation Yrotation
			JOINT LeftShoulder
			{
				OFFSET	 5.810000	 0.000000	 0.000000
				CHANNELS 3 Zrotation Xrotation Yrotation
				JOINT LeftElbow
				{
					OFFSET	 0.000000	-12.080000	 0.000000
					CHANNELS 3 Zrotation Xrotation Yrotation
					JOINT LeftWrist
					{
						OFFSET	 0.000000	-9.820000	 0.000000
						CHANNELS 3 Zrotation Xrotation Yrotation
						End Site 
						{
							OFFSET	 0.000000	-7.369996	 0.000000
						}
					}
				}
			}
		}
		JOINT RightCollar
		{
			OFFSET	-1.060000	 15.330000	 1.760000
			CHANNELS 3 Zrotation Xrotation Yrotation
			JOINT RightShoulder
			{
				OFFSET	-6.060000	 0.000000	 0.000000
				CHANNELS 3 Zrotation Xrotation Yrotation
				JOINT RightElbow
				{
					OFFSET	 0.000000	-11.900000	 0.000000
					CHANNELS 3 Zrotation Xrotation Yrotation
					JOINT RightWrist
					{
						OFFSET	 0.000000	-9.520000	 0.000000
						CHANNELS 3 Zrotation Xrotation Yrotation
						End Site 
						{
							OFFSET	 0.000000	-7.140012	 0.000000
						}
					}
				}
			}
		}
		JOINT Neck
		{
			OFFSET	 0.000000	 17.620001	 0.000000
			CHANNELS 3 Zrotation Xrotation Yrotation
			JOINT Head
			{
				OFFSET	 0.000000	 5.190000	 0.000000
				CHANNELS 3 Zrotation Xrotation Yrotation
				End Site 
				{
					OFFSET	 0.000000	 4.140009	 0.000000
				}
			}
		}
	}
}
MOTION
Frames:     21
Frame Time: 0.033333
 9.54	 32.74	 15.40	-6.03	-5.13	-0.57	 37.01	-31.42	 21.46	-108.17	 69.62	 117.90	-3.92	-11.96	 1.10	-43.70	-37.00	-29.90	 49.46	 62.45	-51.67	-7.21	 7.97	 3.89	 6.61	 12.63	 0.10	-3.59	 0.00	 8.27	 73.93	-2.34	 72.52	 0.00	-15.30	 25.74	 0.00	 0.00	 0.00	-1.30	 0.00	-3.70	-59.96	 4.98	-86.98	 0.00	-12.24	-2.80	 0.00	 0.00	 0.00	-3.83	 32.77	 0.00	 7.20	-41.82	 6.45	
 9.02	 31.21	 15.37	-5.31	-5.21	 1.41	 38.94	-35.65	 25.22	-128.68	 67.12	 137.38	-3.95	-13.49	 0.99	-43.84	-38.15	-30.68	 90.71	 68.08	-88.86	-7.14	 0.49	 2.95	 4.68	 13.52	-1.36	-2.86	 0.00	 8.26	 72.75	-3.47	 73.86	 0.00	-15.36	 25.66	 0.00	 0.00	 0.00	 0.44	 0.00	-3.86	-57.30	 4.42	-86.57	 0.00	-12.48	-3.47	 0.00	 0.00	 0.00	-2.15	 32.39	 0.00	 7.12	-41.83	 6.06	
 8.60	 29.25	 15.28	-3.82	-5.22	 2.40	 40.21	-39.09	 28.05	-140.51	 63.34	 146.07	-3.94	-13.06	 1.03	-43.35	-40.01	-31.26	 122.80	 65.38	-119.80	-7.17	-5.44	 2.20	 2.11	 15.18	-1.57	-2.58	 0.00	 8.17	 71.42	-5.48	 74.19	 0.00	-15.43	 25.52	 0.00	 0.00	 0.00	 2.07	 0.00	-4.20	-54.57	 3.29	-86.52	 0.00	-12.62	-3.77	 0.00	 0.00	 0.00	-0.90	 31.20	 0.00	 6.90	-42.05	 5.43	
 8.28	 26.95	 15.08	-2.20	-5.10	 2.43	 41.57	-41.99	 30.68	-147.77	 59.93	 151.03	-3.92	-12.07	 1.09	-42.46	-42.81	-31.88	 139.93	 61.27	-139.42	-7.30	-11.99	 1.36	-0.22	 17.59	-0.97	-3.12	 0.00	 7.74	 70.09	-8.17	 73.56	 0.00	-15.52	 25.37	 0.00	 0.00	 0.00	 3.09	 0.00	-4.13	-51.82	 1.64	-87.06	 0.00	-12.51	-3.32	 0.00	 0.00	 0.00	-1.08	 29.03	 0.00	 7.68	-42.06	 5.95	
 8.05	 24.41	 14.79	-0.62	-4.73	 2.32	 43.46	-45.30	 33.97	-154.56	 56.13	 157.17	-3.93	-12.59	 1.06	-43.19	-46.64	-34.31	 151.48	 56.97	-155.54	-7.59	-19.91	 0.28	-2.12	 20.45	-0.39	-3.95	 0.00	 6.64	 68.85	-11.42	 71.99	 0.00	-15.60	 25.24	 0.00	 0.00	 0.00	 3.45	 0.00	-3.45	-49.19	-0.28	-87.24	 0.00	-12.19	-2.50	 0.00	 0.00	 0.00	-2.40	 26.00	 0.00	 9.28	-41.88	 7.66	
 7.85	 21.73	 14.44	 0.59	-3.94	 2.59	 47.75	-49.86	 40.09	-162.13	 50.76	 165.09	-3.97	-14.69	 0.91	-47.92	-51.99	-41.11	 160.98	 51.34	-169.87	-7.95	-25.98	-0.61	-3.33	 23.36	-0.22	-4.46	 0.00	 5.08	 68.25	-15.51	 69.52	 0.00	-15.63	 25.18	 0.00	 0.00	 0.00	 3.30	 0.00	-2.65	-47.43	-2.50	-88.37	 0.00	-11.70	-0.72	 0.00	 0.00	 0.00	-3.19	 22.81	 0.00	 9.88	-42.90	 8.35	
 7.68	 19.05	 14.10	 1.10	-3.15	 3.20	 56.91	-54.91	 51.47	-169.06	 44.06	 173.44	-4.00	-16.17	 0.80	-58.28	-57.80	-53.86	 168.24	 44.41	 178.88	-8.08	-27.82	-0.90	-3.60	 26.44	-0.86	-4.10	 0.00	 3.77	 68.86	-20.38	 66.19	 0.00	-15.55	 25.37	 0.00	 0.00	 0.00	 2.63	 0.00	-1.95	-47.19	-5.21	-92.09	 0.00	-11.49	 2.21	 0.00	 0.00	 0.00	-2.51	 20.05	 0.00	 8.74	-45.68	 7.49	
 7.54	 16.64	 13.84	 1.05	-2.77	 3.87	 70.00	-58.26	 66.83	-173.49	 37.47	-178.85	-4.00	-16.51	 0.78	-72.28	-61.45	-70.01	 172.45	 37.61	 171.57	-8.06	-27.59	-0.87	-3.30	 29.32	-2.53	-2.54	 0.00	 2.91	 70.64	-25.20	 62.04	 0.00	-15.38	 25.81	 0.00	 0.00	 0.00	 1.70	 0.00	-0.95	-48.49	-7.60	-95.13	 0.00	-12.25	 3.44	 0.00	 0.00	 0.00	-1.55	 18.27	 0.00	 8.29	-48.78	 7.61	
 7.44	 14.96	 13.70	 0.83	-2.79	 4.34	 80.09	-59.07	 78.48	-174.76	 32.88	-172.95	-4.02	-17.35	 0.72	-82.23	-62.27	-81.24	 173.72	 32.96	 168.03	-8.10	-28.10	-0.95	-3.06	 31.43	-4.84	 0.03	 0.00	 1.78	 73.05	-28.94	 57.10	 0.00	-15.35	 26.05	 0.00	 0.00	 0.00	 0.61	 0.00	 0.40	-50.38	-9.44	-94.47	 0.00	-14.00	 1.67	 0.00	 0.00	 0.00	-0.85	 17.55	 0.00	 9.49	-51.02	 9.53	
 7.46	 14.46	 13.64	 0.48	-3.07	 4.47	 82.05	-58.89	 80.74	-174.13	 31.56	-170.48	-4.05	-18.62	 0.62	-83.20	-61.87	-82.30	 173.27	 31.68	 168.06	-8.17	-29.06	-1.11	-2.75	 32.53	-7.07	 2.98	 0.00	-0.41	 75.24	-31.64	 51.40	 0.00	-15.57	 25.80	 0.00	 0.00	 0.00	-0.84	 0.00	 1.65	-52.29	-10.93	-92.95	 0.00	-15.69	-0.22	 0.00	 0.00	 0.00	-0.39	 17.78	 0.00	 10.94	-52.11	 11.76	
 7.60	 15.24	 13.67	-0.08	-3.52	 4.29	 76.76	-58.40	 74.55	-173.02	 33.62	-172.30	-4.06	-18.83	 0.61	-77.01	-60.93	-75.21	 172.50	 33.84	 171.34	-8.14	-28.63	-1.04	-1.91	 32.69	-9.21	 5.68	 0.00	-3.21	 76.75	-33.98	 44.99	 0.00	-15.86	 25.31	 0.00	 0.00	 0.00	-2.89	 0.00	 1.98	-54.30	-12.91	-94.48	 0.00	-16.35	 0.26	 0.00	 0.00	 0.00	-0.70	 18.27	 0.00	 11.93	-52.02	 13.64	
 7.87	 17.03	 13.85	-0.74	-4.05	 3.87	 67.39	-56.63	 63.49	-171.71	 38.35	-178.26	-4.02	-17.48	 0.71	-67.13	-58.83	-63.76	 171.45	 38.71	 177.33	-7.99	-26.63	-0.72	-0.63	 31.83	-11.42	 7.78	 0.00	-6.08	 77.49	-36.17	 37.89	 0.00	-16.10	 24.83	 0.00	 0.00	 0.00	-5.24	 0.00	 1.18	-56.97	-15.29	-99.34	 0.00	-16.07	 2.98	 0.00	 0.00	 0.00	-1.89	 18.95	 0.00	 12.59	-50.80	 15.67	
 8.19	 19.38	 14.21	-1.28	-4.54	 3.22	 57.52	-52.52	 51.26	-168.97	 44.64	 172.15	-3.98	-15.30	 0.87	-56.87	-54.97	-51.45	 168.68	 45.25	-174.66	-7.83	-24.17	-0.34	 0.52	 29.69	-13.76	 8.97	 0.00	-8.80	 76.83	-37.99	 30.15	 0.00	-16.36	 24.32	 0.00	 0.00	 0.00	-7.47	 0.00	-0.08	-60.71	-16.94	-105.71	 0.00	-15.53	 6.49	 0.00	 0.00	 0.00	-3.63	 20.34	 0.00	 13.36	-48.84	 18.56	
 8.53	 21.92	 14.80	-1.59	-5.10	 2.22	 50.16	-46.10	 40.82	-163.28	 51.28	 158.62	-3.93	-12.35	 1.08	-48.79	-49.66	-41.04	 163.06	 52.23	-164.70	-7.65	-21.06	 0.12	 1.17	 26.47	-15.81	 9.13	 0.00	-11.58	 73.85	-39.34	 21.81	 0.00	-16.68	 23.83	 0.00	 0.00	 0.00	-9.35	 0.00	-1.53	-65.70	-17.50	-111.18	 0.00	-15.27	 9.13	 0.00	 0.00	 0.00	-5.27	 22.50	 0.00	 13.46	-46.04	 21.50	
 8.90	 24.40	 15.59	-1.86	-5.67	 0.82	 46.00	-38.59	 32.86	-153.99	 57.24	 139.93	-3.88	-8.51	 1.34	-44.10	-44.25	-34.07	 155.33	 58.77	-152.27	-7.43	-15.97	 0.83	 1.62	 22.52	-17.42	 8.31	 0.00	-14.21	 68.18	-40.51	 12.88	 0.00	-17.13	 23.23	 0.00	 0.00	 0.00	-10.87	 0.00	-3.13	-71.97	-17.85	-113.52	 0.00	-16.16	 8.76	 0.00	 0.00	 0.00	-6.41	 25.23	 0.00	 12.20	-42.28	 23.63	
 9.30	 26.74	 16.49	-2.23	-6.27	-0.80	 43.79	-31.06	 26.32	-141.85	 62.31	 117.98	-3.85	-5.07	 1.58	-42.16	-39.56	-29.97	 146.42	 65.05	-138.01	-7.23	-9.18	 1.72	 2.40	 18.37	-18.76	 6.47	 0.00	-16.38	 60.31	-41.73	 3.43	 0.00	-17.79	 22.37	 0.00	 0.00	 0.00	-12.17	 0.00	-4.71	-79.06	-18.63	-110.58	 0.00	-19.30	 3.85	 0.00	 0.00	 0.00	-7.65	 28.03	 0.00	 10.23	-37.85	 25.10	
 9.74	 28.87	 17.45	-2.59	-7.02	-2.53	 42.15	-23.80	 20.06	-127.55	 66.89	 99.92	-3.85	-4.71	 1.60	-41.95	-35.51	-27.56	 133.85	 71.64	-123.88	-7.16	-4.21	 2.36	 3.42	 14.58	-19.97	 4.08	 0.00	-18.26	 51.19	-42.11	-6.53	 0.00	-19.06	 20.88	 0.00	 0.00	 0.00	-13.04	 0.00	-5.98	-86.38	-19.57	-103.86	 0.00	-25.78	-3.49	 0.00	 0.00	 0.00	-9.49	 30.46	 0.00	 8.66	-33.84	 26.77	
 10.19	 30.69	 18.42	-2.64	-7.73	-4.56	 40.36	-16.73	 13.74	-107.26	 71.31	 87.54	-3.87	-7.83	 1.39	-42.81	-32.00	-26.15	 102.29	 77.97	-100.30	-7.15	-3.46	 2.45	 4.27	 11.30	-20.72	 1.38	 0.00	-20.49	 43.19	-40.65	-16.96	 0.00	-22.12	 17.93	 0.00	 0.00	 0.00	-13.53	 0.00	-6.77	-92.94	-19.84	-96.59	 0.00	-36.61	-9.94	 0.00	 0.00	 0.00	-11.85	 32.47	 0.00	 7.84	-31.18	 29.00	
 10.65	 32.13	 19.33	-2.42	-8.43	-6.99	 38.08	-9.39	 7.28	-69.80	 73.02	 64.34	-3.91	-10.81	 1.18	-43.60	-28.47	-24.42	 40.57	 73.97	-54.71	-7.17	-5.71	 2.17	 4.79	 8.97	-21.22	-1.15	 0.00	-22.48	 38.18	-38.29	-27.81	 0.00	-29.01	 13.43	 0.00	 0.00	 0.00	-13.66	 0.00	-6.98	-98.01	-18.89	-90.82	 0.00	-51.76	-14.08	 0.00	 0.00	 0.00	-14.26	 33.58	 0.00	 7.75	-29.62	 32.08	
 11.04	 33.15	 20.19	-1.98	-8.98	-9.74	 35.15	-1.56	 1.10	-29.41	 65.20	 33.36	-3.91	-10.84	 1.18	-43.08	-24.08	-20.88	 16.71	 55.28	-46.69	-7.22	-8.58	 1.80	 4.93	 7.40	-21.65	-3.19	 0.00	-23.90	 35.97	-35.91	-39.06	 0.00	-41.19	 8.81	 0.00	 0.00	 0.00	-13.36	 0.00	-7.62	-101.65	-17.58	-87.15	 0.00	-70.22	-16.22	 0.00	 0.00	 0.00	-16.76	 33.86	 0.00	 8.65	-28.74	 35.94	
 11.34	 33.77	 21.02	-1.32	-8.99	-12.70	 31.67	 6.16	-3.79	-8.98	 50.19	 13.88	-3.89	-9.46	 1.28	-40.99	-18.86	-15.69	 8.36	 30.83	-50.12	-7.28	-11.15	 1.47	 4.87	 5.80	-21.16	-5.29	 0.00	-25.48	 35.44	-33.63	-50.49	 0.00	-57.21	 5.16	 0.00	 0.00	 0.00	-12.81	 0.00	-10.53	-104.38	-16.79	-85.34	 0.00	-90.00	 0.00	 0.00	 0.00	 0.00	-19.98	 34.14	 0.00	 11.05	-28.56	 39.80	
